<svg width="51" height="51" viewBox="0 0 51 51" fill="none" xmlns="http://www.w3.org/2000/svg">
<rect x="0.24707" y="0.683838" width="50" height="50" rx="10" fill="#5BB5A2"/>
<path d="M22.3626 38.1527C21.0908 38.1527 19.9779 37.9143 19.024 37.4373C18.0701 36.9604 17.2979 36.2904 16.7074 35.4273L16.2304 37.7439H12.3467V13.2151H16.7074V23.2651C17.2524 22.5156 17.9679 21.857 18.8536 21.2892C19.7621 20.7214 20.9318 20.4375 22.3626 20.4375C23.9525 20.4375 25.3719 20.8236 26.6211 21.5958C27.8703 22.368 28.8582 23.4241 29.585 24.7641C30.3118 26.1041 30.6752 27.6258 30.6752 29.3292C30.6752 31.0326 30.3118 32.5543 29.585 33.8943C28.8582 35.2116 27.8703 36.2563 26.6211 37.0285C25.3719 37.778 23.9525 38.1527 22.3626 38.1527ZM21.4428 34.3371C22.8282 34.3371 23.9752 33.8715 24.8836 32.9404C25.7921 32.0092 26.2464 30.8054 26.2464 29.3292C26.2464 27.8529 25.7921 26.6378 24.8836 25.6839C23.9752 24.73 22.8282 24.2531 21.4428 24.2531C20.0347 24.2531 18.8763 24.73 17.9679 25.6839C17.0821 26.6151 16.6392 27.8188 16.6392 29.2951C16.6392 30.7714 17.0821 31.9865 17.9679 32.9404C18.8763 33.8715 20.0347 34.3371 21.4428 34.3371Z" fill="white"/>
<path d="M35.4223 37.9824C34.6274 37.9824 33.9688 37.7326 33.4464 37.2329C32.9467 36.7332 32.6969 36.1314 32.6969 35.4273C32.6969 34.7005 32.9467 34.0873 33.4464 33.5877C33.9688 33.088 34.6274 32.8382 35.4223 32.8382C36.2172 32.8382 36.8645 33.088 37.3642 33.5877C37.8866 34.0873 38.1477 34.7005 38.1477 35.4273C38.1477 36.1314 37.8866 36.7332 37.3642 37.2329C36.8645 37.7326 36.2172 37.9824 35.4223 37.9824Z" fill="white"/>
</svg>
