<svg width="117" height="21" viewBox="0 0 117 21" fill="none" xmlns="http://www.w3.org/2000/svg">
<path d="M10.3336 15.7805L4.45609 19.0705L5.76859 12.4638L0.822754 7.89047L7.51192 7.09714L10.3336 0.980469L13.1553 7.09714L19.8444 7.89047L14.8986 12.4638L16.2111 19.0705L10.3336 15.7805Z" fill="#5BB5A2"/>
<path d="M34.3336 15.7805L28.4561 19.0705L29.7686 12.4638L24.8228 7.89047L31.5119 7.09714L34.3336 0.980469L37.1553 7.09714L43.8444 7.89047L38.8986 12.4638L40.2111 19.0705L34.3336 15.7805Z" fill="#5BB5A2"/>
<path d="M58.3336 15.7805L52.4561 19.0705L53.7686 12.4638L48.8228 7.89047L55.5119 7.09714L58.3336 0.980469L61.1553 7.09714L67.8444 7.89047L62.8986 12.4638L64.2111 19.0705L58.3336 15.7805Z" fill="#5BB5A2"/>
<path d="M82.3336 15.7805L76.4561 19.0705L77.7686 12.4638L72.8228 7.89047L79.5119 7.09714L82.3336 0.980469L85.1553 7.09714L91.8444 7.89047L86.8986 12.4638L88.2111 19.0705L82.3336 15.7805Z" fill="#5BB5A2"/>
<path d="M106.334 15.7805L100.456 19.0705L101.769 12.4638L96.8228 7.89047L103.512 7.09714L106.334 0.980469L109.155 7.09714L115.844 7.89047L110.899 12.4638L112.211 19.0705L106.334 15.7805Z" fill="#5BB5A2"/>
</svg>
